<svg width="773" height="116" viewBox="0 0 773 116" fill="none" xmlns="http://www.w3.org/2000/svg">
<mask id="path-1-outside-1" maskUnits="userSpaceOnUse" x="0.208008" y="1.336" width="772" height="113" fill="black">
<rect fill="white" x="0.208008" y="1.336" width="772" height="113"/>
<path d="M40.912 109.008C34.288 109.008 28.336 107.856 23.056 105.552C17.872 103.152 13.792 99.888 10.816 95.76C7.84001 91.536 6.30401 86.688 6.20801 81.216H20.176C20.656 85.92 22.576 89.904 25.936 93.168C29.392 96.336 34.384 97.92 40.912 97.92C47.152 97.92 52.048 96.384 55.6 93.312C59.248 90.144 61.072 86.112 61.072 81.216C61.072 77.376 60.016 74.256 57.904 71.856C55.792 69.456 53.152 67.632 49.984 66.384C46.816 65.136 42.544 63.792 37.168 62.352C30.544 60.624 25.216 58.896 21.184 57.168C17.248 55.44 13.84 52.752 10.96 49.104C8.17601 45.36 6.78401 40.368 6.78401 34.128C6.78401 28.656 8.17601 23.808 10.96 19.584C13.744 15.36 17.632 12.096 22.624 9.792C27.712 7.488 33.52 6.336 40.048 6.336C49.456 6.336 57.136 8.688 63.088 13.392C69.136 18.096 72.544 24.336 73.312 32.112H58.912C58.432 28.272 56.416 24.912 52.864 22.032C49.312 19.056 44.608 17.568 38.752 17.568C33.28 17.568 28.816 19.008 25.36 21.888C21.904 24.672 20.176 28.608 20.176 33.696C20.176 37.344 21.184 40.32 23.2 42.624C25.312 44.928 27.856 46.704 30.832 47.952C33.904 49.104 38.176 50.448 43.648 51.984C50.272 53.808 55.6 55.632 59.632 57.456C63.664 59.184 67.12 61.92 70 65.664C72.88 69.312 74.32 74.304 74.32 80.64C74.32 85.536 73.024 90.144 70.432 94.464C67.84 98.784 64 102.288 58.912 104.976C53.824 107.664 47.824 109.008 40.912 109.008Z"/>
<path d="M109.588 39.888V86.4C109.588 90.24 110.404 92.976 112.036 94.608C113.668 96.144 116.5 96.912 120.532 96.912H130.18V108H118.372C111.076 108 105.604 106.32 101.956 102.96C98.3076 99.6 96.4836 94.08 96.4836 86.4V39.888H86.2596V29.088H96.4836V9.216H109.588V29.088H130.18V39.888H109.588Z"/>
<path d="M180.473 109.296C173.081 109.296 166.361 107.616 160.313 104.256C154.361 100.896 149.657 96.144 146.201 90C142.841 83.76 141.161 76.56 141.161 68.4C141.161 60.336 142.889 53.232 146.345 47.088C149.897 40.848 154.697 36.096 160.745 32.832C166.793 29.472 173.561 27.792 181.049 27.792C188.537 27.792 195.305 29.472 201.353 32.832C207.401 36.096 212.153 40.8 215.609 46.944C219.161 53.088 220.937 60.24 220.937 68.4C220.937 76.56 219.113 83.76 215.465 90C211.913 96.144 207.065 100.896 200.921 104.256C194.777 107.616 187.961 109.296 180.473 109.296ZM180.473 97.776C185.177 97.776 189.593 96.672 193.721 94.464C197.849 92.256 201.161 88.944 203.657 84.528C206.249 80.112 207.545 74.736 207.545 68.4C207.545 62.064 206.297 56.688 203.801 52.272C201.305 47.856 198.041 44.592 194.009 42.48C189.977 40.272 185.609 39.168 180.905 39.168C176.105 39.168 171.689 40.272 167.657 42.48C163.721 44.592 160.553 47.856 158.153 52.272C155.753 56.688 154.553 62.064 154.553 68.4C154.553 74.832 155.705 80.256 158.009 84.672C160.409 89.088 163.577 92.4 167.513 94.608C171.449 96.72 175.769 97.776 180.473 97.776Z"/>
<path d="M251.27 41.904C253.574 37.392 256.838 33.888 261.062 31.392C265.382 28.896 270.614 27.648 276.758 27.648V41.184H273.302C258.614 41.184 251.27 49.152 251.27 65.088V108H238.166V29.088H251.27V41.904Z"/>
<path d="M363.885 65.52C363.885 68.016 363.741 70.656 363.453 73.44H300.381C300.861 81.216 303.501 87.312 308.301 91.728C313.197 96.048 319.101 98.208 326.013 98.208C331.677 98.208 336.381 96.912 340.125 94.32C343.965 91.632 346.653 88.08 348.189 83.664H362.301C360.189 91.248 355.965 97.44 349.629 102.24C343.293 106.944 335.421 109.296 326.013 109.296C318.525 109.296 311.805 107.616 305.853 104.256C299.997 100.896 295.389 96.144 292.029 90C288.669 83.76 286.989 76.56 286.989 68.4C286.989 60.24 288.621 53.088 291.885 46.944C295.149 40.8 299.709 36.096 305.565 32.832C311.517 29.472 318.333 27.792 326.013 27.792C333.501 27.792 340.125 29.424 345.885 32.688C351.645 35.952 356.061 40.464 359.133 46.224C362.301 51.888 363.885 58.32 363.885 65.52ZM350.349 62.784C350.349 57.792 349.245 53.52 347.037 49.968C344.829 46.32 341.805 43.584 337.965 41.76C334.221 39.84 330.045 38.88 325.437 38.88C318.813 38.88 313.149 40.992 308.445 45.216C303.837 49.44 301.197 55.296 300.525 62.784H350.349Z"/>
<path d="M476.308 7.632V18.288H432.676V52.128H468.1V62.784H432.676V108H419.572V7.632H476.308Z"/>
<path d="M505.239 41.904C507.543 37.392 510.807 33.888 515.031 31.392C519.351 28.896 524.583 27.648 530.727 27.648V41.184H527.271C512.583 41.184 505.239 49.152 505.239 65.088V108H492.135V29.088H505.239V41.904Z"/>
<path d="M580.27 109.296C572.878 109.296 566.158 107.616 560.11 104.256C554.158 100.896 549.454 96.144 545.998 90C542.638 83.76 540.958 76.56 540.958 68.4C540.958 60.336 542.686 53.232 546.142 47.088C549.694 40.848 554.494 36.096 560.542 32.832C566.59 29.472 573.358 27.792 580.846 27.792C588.334 27.792 595.102 29.472 601.15 32.832C607.198 36.096 611.95 40.8 615.406 46.944C618.958 53.088 620.734 60.24 620.734 68.4C620.734 76.56 618.91 83.76 615.262 90C611.71 96.144 606.862 100.896 600.718 104.256C594.574 107.616 587.758 109.296 580.27 109.296ZM580.27 97.776C584.974 97.776 589.39 96.672 593.518 94.464C597.646 92.256 600.958 88.944 603.454 84.528C606.046 80.112 607.342 74.736 607.342 68.4C607.342 62.064 606.094 56.688 603.598 52.272C601.102 47.856 597.838 44.592 593.806 42.48C589.774 40.272 585.406 39.168 580.702 39.168C575.902 39.168 571.486 40.272 567.454 42.48C563.518 44.592 560.35 47.856 557.95 52.272C555.55 56.688 554.35 62.064 554.35 68.4C554.35 74.832 555.502 80.256 557.806 84.672C560.206 89.088 563.374 92.4 567.31 94.608C571.246 96.72 575.566 97.776 580.27 97.776Z"/>
<path d="M676.411 27.648C686.011 27.648 693.787 30.576 699.739 36.432C705.691 42.192 708.667 50.544 708.667 61.488V108H695.707V63.36C695.707 55.488 693.739 49.488 689.803 45.36C685.867 41.136 680.491 39.024 673.675 39.024C666.763 39.024 661.243 41.184 657.115 45.504C653.083 49.824 651.067 56.112 651.067 64.368V108H637.963V29.088H651.067V40.32C653.659 36.288 657.163 33.168 661.579 30.96C666.091 28.752 671.035 27.648 676.411 27.648Z"/>
<path d="M746.056 39.888V86.4C746.056 90.24 746.872 92.976 748.504 94.608C750.136 96.144 752.968 96.912 757 96.912H766.648V108H754.84C747.544 108 742.072 106.32 738.424 102.96C734.776 99.6 732.952 94.08 732.952 86.4V39.888H722.728V29.088H732.952V9.216H746.056V29.088H766.648V39.888H746.056Z"/>
</mask>
<path d="M40.912 109.008C34.288 109.008 28.336 107.856 23.056 105.552C17.872 103.152 13.792 99.888 10.816 95.76C7.84001 91.536 6.30401 86.688 6.20801 81.216H20.176C20.656 85.92 22.576 89.904 25.936 93.168C29.392 96.336 34.384 97.92 40.912 97.92C47.152 97.92 52.048 96.384 55.6 93.312C59.248 90.144 61.072 86.112 61.072 81.216C61.072 77.376 60.016 74.256 57.904 71.856C55.792 69.456 53.152 67.632 49.984 66.384C46.816 65.136 42.544 63.792 37.168 62.352C30.544 60.624 25.216 58.896 21.184 57.168C17.248 55.44 13.84 52.752 10.96 49.104C8.17601 45.36 6.78401 40.368 6.78401 34.128C6.78401 28.656 8.17601 23.808 10.96 19.584C13.744 15.36 17.632 12.096 22.624 9.792C27.712 7.488 33.52 6.336 40.048 6.336C49.456 6.336 57.136 8.688 63.088 13.392C69.136 18.096 72.544 24.336 73.312 32.112H58.912C58.432 28.272 56.416 24.912 52.864 22.032C49.312 19.056 44.608 17.568 38.752 17.568C33.28 17.568 28.816 19.008 25.36 21.888C21.904 24.672 20.176 28.608 20.176 33.696C20.176 37.344 21.184 40.32 23.2 42.624C25.312 44.928 27.856 46.704 30.832 47.952C33.904 49.104 38.176 50.448 43.648 51.984C50.272 53.808 55.6 55.632 59.632 57.456C63.664 59.184 67.12 61.92 70 65.664C72.88 69.312 74.32 74.304 74.32 80.64C74.32 85.536 73.024 90.144 70.432 94.464C67.84 98.784 64 102.288 58.912 104.976C53.824 107.664 47.824 109.008 40.912 109.008Z" stroke="white" stroke-width="10" mask="url(#path-1-outside-1)"/>
<path d="M109.588 39.888V86.4C109.588 90.24 110.404 92.976 112.036 94.608C113.668 96.144 116.5 96.912 120.532 96.912H130.18V108H118.372C111.076 108 105.604 106.32 101.956 102.96C98.3076 99.6 96.4836 94.08 96.4836 86.4V39.888H86.2596V29.088H96.4836V9.216H109.588V29.088H130.18V39.888H109.588Z" stroke="white" stroke-width="10" mask="url(#path-1-outside-1)"/>
<path d="M180.473 109.296C173.081 109.296 166.361 107.616 160.313 104.256C154.361 100.896 149.657 96.144 146.201 90C142.841 83.76 141.161 76.56 141.161 68.4C141.161 60.336 142.889 53.232 146.345 47.088C149.897 40.848 154.697 36.096 160.745 32.832C166.793 29.472 173.561 27.792 181.049 27.792C188.537 27.792 195.305 29.472 201.353 32.832C207.401 36.096 212.153 40.8 215.609 46.944C219.161 53.088 220.937 60.24 220.937 68.4C220.937 76.56 219.113 83.76 215.465 90C211.913 96.144 207.065 100.896 200.921 104.256C194.777 107.616 187.961 109.296 180.473 109.296ZM180.473 97.776C185.177 97.776 189.593 96.672 193.721 94.464C197.849 92.256 201.161 88.944 203.657 84.528C206.249 80.112 207.545 74.736 207.545 68.4C207.545 62.064 206.297 56.688 203.801 52.272C201.305 47.856 198.041 44.592 194.009 42.48C189.977 40.272 185.609 39.168 180.905 39.168C176.105 39.168 171.689 40.272 167.657 42.48C163.721 44.592 160.553 47.856 158.153 52.272C155.753 56.688 154.553 62.064 154.553 68.4C154.553 74.832 155.705 80.256 158.009 84.672C160.409 89.088 163.577 92.4 167.513 94.608C171.449 96.72 175.769 97.776 180.473 97.776Z" stroke="white" stroke-width="10" mask="url(#path-1-outside-1)"/>
<path d="M251.27 41.904C253.574 37.392 256.838 33.888 261.062 31.392C265.382 28.896 270.614 27.648 276.758 27.648V41.184H273.302C258.614 41.184 251.27 49.152 251.27 65.088V108H238.166V29.088H251.27V41.904Z" stroke="white" stroke-width="10" mask="url(#path-1-outside-1)"/>
<path d="M363.885 65.52C363.885 68.016 363.741 70.656 363.453 73.44H300.381C300.861 81.216 303.501 87.312 308.301 91.728C313.197 96.048 319.101 98.208 326.013 98.208C331.677 98.208 336.381 96.912 340.125 94.32C343.965 91.632 346.653 88.08 348.189 83.664H362.301C360.189 91.248 355.965 97.44 349.629 102.24C343.293 106.944 335.421 109.296 326.013 109.296C318.525 109.296 311.805 107.616 305.853 104.256C299.997 100.896 295.389 96.144 292.029 90C288.669 83.76 286.989 76.56 286.989 68.4C286.989 60.24 288.621 53.088 291.885 46.944C295.149 40.8 299.709 36.096 305.565 32.832C311.517 29.472 318.333 27.792 326.013 27.792C333.501 27.792 340.125 29.424 345.885 32.688C351.645 35.952 356.061 40.464 359.133 46.224C362.301 51.888 363.885 58.32 363.885 65.52ZM350.349 62.784C350.349 57.792 349.245 53.52 347.037 49.968C344.829 46.32 341.805 43.584 337.965 41.76C334.221 39.84 330.045 38.88 325.437 38.88C318.813 38.88 313.149 40.992 308.445 45.216C303.837 49.44 301.197 55.296 300.525 62.784H350.349Z" stroke="white" stroke-width="10" mask="url(#path-1-outside-1)"/>
<path d="M476.308 7.632V18.288H432.676V52.128H468.1V62.784H432.676V108H419.572V7.632H476.308Z" stroke="white" stroke-width="10" mask="url(#path-1-outside-1)"/>
<path d="M505.239 41.904C507.543 37.392 510.807 33.888 515.031 31.392C519.351 28.896 524.583 27.648 530.727 27.648V41.184H527.271C512.583 41.184 505.239 49.152 505.239 65.088V108H492.135V29.088H505.239V41.904Z" stroke="white" stroke-width="10" mask="url(#path-1-outside-1)"/>
<path d="M580.27 109.296C572.878 109.296 566.158 107.616 560.11 104.256C554.158 100.896 549.454 96.144 545.998 90C542.638 83.76 540.958 76.56 540.958 68.4C540.958 60.336 542.686 53.232 546.142 47.088C549.694 40.848 554.494 36.096 560.542 32.832C566.59 29.472 573.358 27.792 580.846 27.792C588.334 27.792 595.102 29.472 601.15 32.832C607.198 36.096 611.95 40.8 615.406 46.944C618.958 53.088 620.734 60.24 620.734 68.4C620.734 76.56 618.91 83.76 615.262 90C611.71 96.144 606.862 100.896 600.718 104.256C594.574 107.616 587.758 109.296 580.27 109.296ZM580.27 97.776C584.974 97.776 589.39 96.672 593.518 94.464C597.646 92.256 600.958 88.944 603.454 84.528C606.046 80.112 607.342 74.736 607.342 68.4C607.342 62.064 606.094 56.688 603.598 52.272C601.102 47.856 597.838 44.592 593.806 42.48C589.774 40.272 585.406 39.168 580.702 39.168C575.902 39.168 571.486 40.272 567.454 42.48C563.518 44.592 560.35 47.856 557.95 52.272C555.55 56.688 554.35 62.064 554.35 68.4C554.35 74.832 555.502 80.256 557.806 84.672C560.206 89.088 563.374 92.4 567.31 94.608C571.246 96.72 575.566 97.776 580.27 97.776Z" stroke="white" stroke-width="10" mask="url(#path-1-outside-1)"/>
<path d="M676.411 27.648C686.011 27.648 693.787 30.576 699.739 36.432C705.691 42.192 708.667 50.544 708.667 61.488V108H695.707V63.36C695.707 55.488 693.739 49.488 689.803 45.36C685.867 41.136 680.491 39.024 673.675 39.024C666.763 39.024 661.243 41.184 657.115 45.504C653.083 49.824 651.067 56.112 651.067 64.368V108H637.963V29.088H651.067V40.32C653.659 36.288 657.163 33.168 661.579 30.96C666.091 28.752 671.035 27.648 676.411 27.648Z" stroke="white" stroke-width="10" mask="url(#path-1-outside-1)"/>
<path d="M746.056 39.888V86.4C746.056 90.24 746.872 92.976 748.504 94.608C750.136 96.144 752.968 96.912 757 96.912H766.648V108H754.84C747.544 108 742.072 106.32 738.424 102.96C734.776 99.6 732.952 94.08 732.952 86.4V39.888H722.728V29.088H732.952V9.216H746.056V29.088H766.648V39.888H746.056Z" stroke="white" stroke-width="10" mask="url(#path-1-outside-1)"/>
<mask id="path-2-outside-2" maskUnits="userSpaceOnUse" x="-0.809692" y="0.335999" width="774" height="115" fill="black">
<rect fill="white" x="-0.809692" y="0.335999" width="774" height="115"/>
<path fill-rule="evenodd" clip-rule="evenodd" d="M22.6459 106.464L22.6359 106.459C17.3155 103.996 13.0931 100.629 10.0048 96.3448L9.99847 96.336C6.90021 91.9383 5.30745 86.8932 5.20816 81.2335L5.19031 80.216H21.0792L21.1708 81.1145C21.6267 85.5822 23.4393 89.3441 26.6225 92.4407C29.8322 95.3767 34.5428 96.92 40.912 96.92C46.9908 96.92 51.6266 95.4255 54.9443 92.557C58.3703 89.5818 60.072 85.8268 60.072 81.216C60.072 77.5678 59.0737 74.6989 57.1533 72.5166C55.1529 70.2435 52.6477 68.5081 49.6175 67.3144C46.5003 66.0864 42.2703 64.754 36.9126 63.3189C30.2652 61.5846 24.8853 59.8423 20.7901 58.0871L20.782 58.0837C16.6841 56.2845 13.1481 53.4895 10.1751 49.7236L10.1662 49.7123L10.1575 49.7007C7.20815 45.7343 5.78401 40.5111 5.78401 34.128C5.78401 28.4771 7.22455 23.4344 10.125 19.0337C13.0205 14.6406 17.0589 11.2591 22.2049 8.88404L22.2115 8.88102C27.4492 6.50927 33.4015 5.336 40.048 5.336C49.6242 5.336 57.538 7.73233 63.7052 12.6052C69.9724 17.481 73.513 23.9723 74.3072 32.0137L74.4156 33.112H58.0292L57.9197 32.236C57.4775 28.698 55.6246 25.5577 52.2342 22.8088L52.228 22.8037L52.2218 22.7985C48.8931 20.0097 44.4367 18.568 38.752 18.568C33.4614 18.568 29.2399 19.9565 26.0002 22.6562L25.9938 22.6615L25.9873 22.6668C22.8033 25.2317 21.176 28.8607 21.176 33.696C21.176 37.1458 22.1229 39.8699 23.945 41.9569C25.9505 44.1422 28.3653 45.8305 31.2013 47.0225C34.2327 48.1582 38.4666 49.4909 43.9158 51.0205C50.5598 52.8501 55.9387 54.6886 60.035 56.5407C64.2305 58.3407 67.8158 61.1859 70.7889 65.0495C73.8485 68.9279 75.32 74.163 75.32 80.64C75.32 85.7227 73.9719 90.5078 71.2895 94.9785C68.5908 99.4763 64.6051 103.099 59.3791 105.86C54.1209 108.638 47.9543 110.008 40.912 110.008C34.1709 110.008 28.0797 108.835 22.6561 106.469L22.6459 106.464ZM70 65.664C67.12 61.92 63.664 59.184 59.632 57.456C55.6 55.632 50.272 53.808 43.648 51.984C38.176 50.448 33.904 49.104 30.832 47.952C27.856 46.704 25.312 44.928 23.2 42.624C21.184 40.32 20.176 37.344 20.176 33.696C20.176 28.608 21.904 24.672 25.36 21.888C28.816 19.008 33.28 17.568 38.752 17.568C44.608 17.568 49.312 19.056 52.864 22.032C56.416 24.912 58.432 28.272 58.912 32.112H73.312C73.2788 31.7758 73.2407 31.4425 73.1976 31.112C72.2444 23.7993 68.8745 17.8926 63.088 13.392C57.136 8.688 49.456 6.336 40.048 6.336C33.52 6.336 27.712 7.488 22.624 9.792C17.632 12.096 13.744 15.36 10.96 19.584C8.17601 23.808 6.78401 28.656 6.78401 34.128C6.78401 40.368 8.17601 45.36 10.96 49.104C13.84 52.752 17.248 55.44 21.184 57.168C25.216 58.896 30.544 60.624 37.168 62.352C42.544 63.792 46.816 65.136 49.984 66.384C53.152 67.632 55.792 69.456 57.904 71.856C60.016 74.256 61.072 77.376 61.072 81.216C61.072 86.112 59.248 90.144 55.6 93.312C52.048 96.384 47.152 97.92 40.912 97.92C34.384 97.92 29.392 96.336 25.936 93.168C22.576 89.904 20.656 85.92 20.176 81.216H6.208C6.21389 81.5517 6.2252 81.885 6.24193 82.216C6.49788 87.2805 8.02257 91.7951 10.816 95.76C13.792 99.888 17.872 103.152 23.056 105.552C28.336 107.856 34.288 109.008 40.912 109.008C47.824 109.008 53.824 107.664 58.912 104.976C64 102.288 67.84 98.784 70.432 94.464C73.024 90.144 74.32 85.536 74.32 80.64C74.32 74.304 72.88 69.312 70 65.664ZM131.18 95.912V109H118.372C110.941 109 105.181 107.291 101.278 103.696C97.3348 100.063 95.4836 94.208 95.4836 86.4V40.888H85.2596V28.088H95.4836V8.216H110.588V28.088H131.18V40.888H110.588V86.4C110.588 90.1316 111.386 92.5356 112.732 93.8902C114.08 95.1506 116.581 95.912 120.532 95.912H131.18ZM112.036 94.608C110.404 92.976 109.588 90.24 109.588 86.4V39.888H130.18V29.088H109.588V9.216H96.4836V29.088H86.2596V39.888H96.4836V86.4C96.4836 94.08 98.3076 99.6 101.956 102.96C105.604 106.32 111.076 108 118.372 108H130.18V96.912H120.532C116.5 96.912 113.668 96.144 112.036 94.608ZM159.827 105.13L159.821 105.127C153.705 101.674 148.872 96.7882 145.329 90.4903L145.325 90.4822L145.32 90.4741C141.871 84.0677 140.161 76.7002 140.161 68.4C140.161 60.1893 141.921 52.9118 145.473 46.5977L145.476 46.5933C149.115 40.1999 154.047 35.3118 160.265 31.9548C166.472 28.5076 173.407 26.792 181.049 26.792C188.69 26.792 195.626 28.5076 201.833 31.9548C208.048 35.3101 212.933 40.1487 216.478 46.4489C220.128 52.7654 221.937 60.0934 221.937 68.4C221.937 76.713 220.077 84.0908 216.329 90.5023C212.687 96.8018 207.707 101.685 201.401 105.133C195.099 108.579 188.116 110.296 180.473 110.296C172.923 110.296 166.034 108.578 159.827 105.13ZM215.465 90C219.113 83.76 220.937 76.56 220.937 68.4C220.937 60.24 219.161 53.088 215.609 46.944C212.153 40.8 207.401 36.096 201.353 32.832C195.305 29.472 188.537 27.792 181.049 27.792C173.561 27.792 166.793 29.472 160.745 32.832C154.697 36.096 149.897 40.848 146.345 47.088C142.889 53.232 141.161 60.336 141.161 68.4C141.161 76.56 142.841 83.76 146.201 90C149.657 96.144 154.361 100.896 160.313 104.256C166.361 107.616 173.081 109.296 180.473 109.296C187.961 109.296 194.777 107.616 200.921 104.256C207.065 100.896 211.913 96.144 215.465 90ZM202.79 84.0288L202.794 84.0218C205.277 79.7918 206.545 74.6 206.545 68.4C206.545 62.1941 205.323 56.9969 202.93 52.7641C200.518 48.4959 197.387 45.3784 193.545 43.3658L193.537 43.3615L193.528 43.3571C189.647 41.2317 185.445 40.168 180.905 40.168C176.265 40.168 172.015 41.2333 168.137 43.3571L168.13 43.3612C164.386 45.3698 161.35 48.4826 159.031 52.7495C156.729 56.9856 155.553 62.1882 155.553 68.4C155.553 74.7129 156.683 79.9659 158.892 84.2023C161.21 88.465 164.247 91.627 167.994 93.7312C171.774 95.7581 175.928 96.776 180.473 96.776C185.013 96.776 189.267 95.7122 193.249 93.5822C197.196 91.4711 200.375 88.3012 202.786 84.0359L202.79 84.0288ZM167.513 94.608C163.577 92.4 160.409 89.088 158.009 84.672C155.705 80.256 154.553 74.832 154.553 68.4C154.553 62.064 155.753 56.688 158.153 52.272C160.553 47.856 163.721 44.592 167.657 42.48C171.689 40.272 176.105 39.168 180.905 39.168C185.609 39.168 189.977 40.272 194.009 42.48C198.041 44.592 201.305 47.856 203.801 52.272C206.297 56.688 207.545 62.064 207.545 68.4C207.545 74.736 206.249 80.112 203.657 84.528C201.161 88.944 197.849 92.256 193.721 94.464C189.593 96.672 185.177 97.776 180.473 97.776C175.769 97.776 171.449 96.72 167.513 94.608ZM275.758 27.6592C276.089 27.6517 276.422 27.648 276.758 27.648V41.184H273.302C258.614 41.184 251.27 49.152 251.27 65.088V108H238.166V29.088H251.27V41.904C251.585 41.2864 251.919 40.6878 252.27 40.108C254.486 36.4517 257.416 33.5464 261.062 31.392C265.146 29.0325 270.044 27.7883 275.758 27.6592ZM252.27 38.2641C254.452 35.0856 257.214 32.5044 260.553 30.5311L260.562 30.5261C265.065 27.9241 270.479 26.648 276.758 26.648H277.758V42.184H273.302C266.134 42.184 260.936 44.1245 257.513 47.8377C254.077 51.5664 252.27 57.2548 252.27 65.088V109H237.166V28.088H252.27V38.2641ZM364.355 74.44H301.459C302.092 81.4937 304.617 86.9767 308.971 90.9853C313.671 95.1293 319.333 97.208 326.013 97.208C331.523 97.208 336.015 95.9488 339.554 93.4987C343.221 90.9312 345.778 87.5513 347.244 83.3355L347.478 82.664H363.617L363.264 83.9323C361.093 91.7293 356.741 98.1063 350.233 103.037L350.225 103.043C343.685 107.898 335.593 110.296 326.013 110.296C318.37 110.296 311.477 108.579 305.361 105.127L305.355 105.123C299.333 101.668 294.596 96.7792 291.151 90.4798L291.148 90.4741C287.699 84.0677 285.989 76.7002 285.989 68.4C285.989 60.1047 287.649 52.7864 291.002 46.4748C294.352 40.1682 299.046 35.3211 305.076 31.9597C311.195 28.5059 318.183 26.792 326.013 26.792C333.651 26.792 340.449 28.4581 346.378 31.818C352.297 35.1724 356.848 39.8187 360.01 45.7442C363.268 51.5712 364.885 58.1717 364.885 65.52C364.885 68.0542 364.739 70.7288 364.448 73.5429L364.355 74.44ZM340.125 94.32C336.381 96.912 331.677 98.208 326.013 98.208C319.101 98.208 313.197 96.048 308.301 91.728C303.709 87.5031 301.093 81.7404 300.455 74.44C300.426 74.1098 300.402 73.7765 300.381 73.44H363.453C363.741 70.656 363.885 68.016 363.885 65.52C363.885 58.32 362.301 51.888 359.133 46.224C356.061 40.464 351.645 35.952 345.885 32.688C340.125 29.424 333.501 27.792 326.013 27.792C318.333 27.792 311.517 29.472 305.565 32.832C299.709 36.096 295.149 40.8 291.885 46.944C288.621 53.088 286.989 60.24 286.989 68.4C286.989 76.56 288.669 83.76 292.029 90C295.389 96.144 299.997 100.896 305.853 104.256C311.805 107.616 318.525 109.296 326.013 109.296C335.421 109.296 343.293 106.944 349.629 102.24C355.684 97.6527 359.81 91.794 362.008 84.664C362.11 84.3334 362.207 84.0001 362.301 83.664H348.189C346.653 88.08 343.965 91.632 340.125 94.32ZM346.188 50.4959L346.181 50.4858C344.074 47.0047 341.198 44.403 337.536 42.6633L337.522 42.6568L337.509 42.6498C333.919 40.8089 329.902 39.88 325.437 39.88C319.048 39.88 313.627 41.9082 309.117 45.9567C304.952 49.7765 302.437 55.022 301.634 61.784H349.333C349.195 57.3775 348.134 53.6269 346.188 50.4959ZM350.334 61.784C350.344 62.1141 350.349 62.4474 350.349 62.784H300.525C300.555 62.4474 300.589 62.114 300.627 61.784C301.438 54.7728 304.044 49.2501 308.445 45.216C313.149 40.992 318.813 38.88 325.437 38.88C330.045 38.88 334.221 39.84 337.965 41.76C341.805 43.584 344.829 46.32 347.037 49.968C349.096 53.2805 350.195 57.2192 350.334 61.784ZM477.308 6.632V19.288H433.676V51.128H469.1V63.784H433.676V109H418.572V6.632H477.308ZM432.676 62.784H468.1V52.128H432.676V18.288H476.308V7.632H419.572V108H432.676V62.784ZM529.727 27.6592C530.057 27.6517 530.391 27.648 530.727 27.648V41.184H527.271C512.583 41.184 505.239 49.152 505.239 65.088V108H492.135V29.088H505.239V41.904C505.554 41.2864 505.888 40.6878 506.239 40.108C508.454 36.4517 511.385 33.5464 515.031 31.392C519.115 29.0325 524.013 27.7883 529.727 27.6592ZM506.239 38.2641C508.42 35.0856 511.183 32.5044 514.522 30.5311L514.531 30.5261C519.034 27.9241 524.448 26.648 530.727 26.648H531.727V42.184H527.271C520.103 42.184 514.905 44.1245 511.482 47.8377C508.046 51.5664 506.239 57.2548 506.239 65.088V109H491.135V28.088H506.239V38.2641ZM559.624 105.13L559.618 105.127C553.502 101.674 548.669 96.7882 545.126 90.4903L545.122 90.4822L545.117 90.4741C541.668 84.0677 539.958 76.7002 539.958 68.4C539.958 60.1893 541.718 52.9118 545.27 46.5977L545.273 46.5933C548.912 40.2003 553.843 35.3124 560.06 31.9554C566.268 28.5077 573.204 26.792 580.846 26.792C588.487 26.792 595.422 28.5074 601.629 31.9543C607.845 35.3098 612.73 40.1489 616.275 46.4501C619.925 52.7663 621.734 60.0938 621.734 68.4C621.734 76.713 619.874 84.0908 616.126 90.5024C612.484 96.8019 607.504 101.685 601.197 105.133C594.896 108.579 587.913 110.296 580.27 110.296C572.72 110.296 565.831 108.578 559.624 105.13ZM615.262 90C618.91 83.76 620.734 76.56 620.734 68.4C620.734 60.24 618.958 53.088 615.406 46.944C611.95 40.8 607.198 36.096 601.15 32.832C595.102 29.472 588.334 27.792 580.846 27.792C573.358 27.792 566.59 29.472 560.542 32.832C554.494 36.096 549.694 40.848 546.142 47.088C542.686 53.232 540.958 60.336 540.958 68.4C540.958 76.56 542.638 83.76 545.998 90C549.454 96.144 554.158 100.896 560.11 104.256C566.158 107.616 572.878 109.296 580.27 109.296C587.758 109.296 594.574 107.616 600.718 104.256C606.862 100.896 611.71 96.144 615.262 90ZM602.587 84.0288L602.591 84.0218C605.074 79.7918 606.342 74.6 606.342 68.4C606.342 62.1941 605.12 56.9969 602.727 52.7641C600.315 48.4959 597.184 45.3784 593.342 43.3658L593.333 43.3615L593.325 43.3571C589.444 41.2317 585.242 40.168 580.702 40.168C576.062 40.168 571.812 41.2333 567.934 43.3571L567.926 43.3612C564.183 45.3698 561.147 48.4826 558.828 52.7495C556.526 56.9856 555.35 62.1882 555.35 68.4C555.35 74.7122 556.48 79.9648 558.688 84.201C561.006 88.4642 564.043 91.6266 567.79 93.7311C571.571 95.758 575.725 96.776 580.27 96.776C584.81 96.776 589.064 95.7122 593.046 93.5822C596.993 91.4711 600.172 88.3012 602.583 84.0359L602.587 84.0288ZM567.31 94.608C563.374 92.4 560.206 89.088 557.806 84.672C555.502 80.256 554.35 74.832 554.35 68.4C554.35 62.064 555.55 56.688 557.95 52.272C560.35 47.856 563.518 44.592 567.454 42.48C571.486 40.272 575.902 39.168 580.702 39.168C585.406 39.168 589.774 40.272 593.806 42.48C597.838 44.592 601.102 47.856 603.598 52.272C606.094 56.688 607.342 62.064 607.342 68.4C607.342 74.736 606.046 80.112 603.454 84.528C600.958 88.944 597.646 92.256 593.518 94.464C589.39 96.672 584.974 97.776 580.27 97.776C575.566 97.776 571.246 96.72 567.31 94.608ZM709.667 109H694.707V63.36C694.707 55.646 692.78 49.9311 689.079 46.0501L689.071 46.0418C685.359 42.0574 680.268 40.024 673.675 40.024C666.992 40.024 661.751 42.1023 657.842 46.1908C654.044 50.2629 652.067 56.2672 652.067 64.368V109H636.963V28.088H652.067V37.2423C654.505 34.2598 657.53 31.8665 661.132 30.0656L661.139 30.0617C665.798 27.7822 670.894 26.648 676.411 26.648C686.229 26.648 694.271 29.6505 700.438 35.7165C706.639 41.7197 709.667 50.3655 709.667 61.488V109ZM699.739 36.432C693.787 30.576 686.011 27.648 676.411 27.648C671.035 27.648 666.091 28.752 661.579 30.96C657.707 32.8959 654.537 35.5327 652.067 38.8707C651.72 39.3399 651.386 39.823 651.067 40.32V29.088H637.963V108H651.067V64.368C651.067 56.112 653.083 49.824 657.115 45.504C661.243 41.184 666.763 39.024 673.675 39.024C680.491 39.024 685.867 41.136 689.803 45.36C693.739 49.488 695.707 55.488 695.707 63.36V108H708.667V61.488C708.667 50.544 705.691 42.192 699.739 36.432ZM767.648 95.912V109H754.84C747.41 109 741.65 107.291 737.747 103.696C733.804 100.063 731.952 94.208 731.952 86.4V40.888H721.728V28.088H731.952V8.216H747.056V28.088H767.648V40.888H747.056V86.4C747.056 90.1313 747.854 92.5352 749.201 93.89C750.549 95.1504 753.05 95.912 757 95.912H767.648ZM746.056 86.4C746.056 90.24 746.872 92.976 748.504 94.608C750.136 96.144 752.968 96.912 757 96.912H766.648V108H754.84C747.544 108 742.072 106.32 738.424 102.96C734.776 99.6 732.952 94.08 732.952 86.4V39.888H722.728V29.088H732.952V9.216H746.056V29.088H766.648V39.888H746.056V86.4Z"/>
</mask>
<path fill-rule="evenodd" clip-rule="evenodd" d="M22.6459 106.464L22.6359 106.459C17.3155 103.996 13.0931 100.629 10.0048 96.3448L9.99847 96.336C6.90021 91.9383 5.30745 86.8932 5.20816 81.2335L5.19031 80.216H21.0792L21.1708 81.1145C21.6267 85.5822 23.4393 89.3441 26.6225 92.4407C29.8322 95.3767 34.5428 96.92 40.912 96.92C46.9908 96.92 51.6266 95.4255 54.9443 92.557C58.3703 89.5818 60.072 85.8268 60.072 81.216C60.072 77.5678 59.0737 74.6989 57.1533 72.5166C55.1529 70.2435 52.6477 68.5081 49.6175 67.3144C46.5003 66.0864 42.2703 64.754 36.9126 63.3189C30.2652 61.5846 24.8853 59.8423 20.7901 58.0871L20.782 58.0837C16.6841 56.2845 13.1481 53.4895 10.1751 49.7236L10.1662 49.7123L10.1575 49.7007C7.20815 45.7343 5.78401 40.5111 5.78401 34.128C5.78401 28.4771 7.22455 23.4344 10.125 19.0337C13.0205 14.6406 17.0589 11.2591 22.2049 8.88404L22.2115 8.88102C27.4492 6.50927 33.4015 5.336 40.048 5.336C49.6242 5.336 57.538 7.73233 63.7052 12.6052C69.9724 17.481 73.513 23.9723 74.3072 32.0137L74.4156 33.112H58.0292L57.9197 32.236C57.4775 28.698 55.6246 25.5577 52.2342 22.8088L52.228 22.8037L52.2218 22.7985C48.8931 20.0097 44.4367 18.568 38.752 18.568C33.4614 18.568 29.2399 19.9565 26.0002 22.6562L25.9938 22.6615L25.9873 22.6668C22.8033 25.2317 21.176 28.8607 21.176 33.696C21.176 37.1458 22.1229 39.8699 23.945 41.9569C25.9505 44.1422 28.3653 45.8305 31.2013 47.0225C34.2327 48.1582 38.4666 49.4909 43.9158 51.0205C50.5598 52.8501 55.9387 54.6886 60.035 56.5407C64.2305 58.3407 67.8158 61.1859 70.7889 65.0495C73.8485 68.9279 75.32 74.163 75.32 80.64C75.32 85.7227 73.9719 90.5078 71.2895 94.9785C68.5908 99.4763 64.6051 103.099 59.3791 105.86C54.1209 108.638 47.9543 110.008 40.912 110.008C34.1709 110.008 28.0797 108.835 22.6561 106.469L22.6459 106.464ZM70 65.664C67.12 61.92 63.664 59.184 59.632 57.456C55.6 55.632 50.272 53.808 43.648 51.984C38.176 50.448 33.904 49.104 30.832 47.952C27.856 46.704 25.312 44.928 23.2 42.624C21.184 40.32 20.176 37.344 20.176 33.696C20.176 28.608 21.904 24.672 25.36 21.888C28.816 19.008 33.28 17.568 38.752 17.568C44.608 17.568 49.312 19.056 52.864 22.032C56.416 24.912 58.432 28.272 58.912 32.112H73.312C73.2788 31.7758 73.2407 31.4425 73.1976 31.112C72.2444 23.7993 68.8745 17.8926 63.088 13.392C57.136 8.688 49.456 6.336 40.048 6.336C33.52 6.336 27.712 7.488 22.624 9.792C17.632 12.096 13.744 15.36 10.96 19.584C8.17601 23.808 6.78401 28.656 6.78401 34.128C6.78401 40.368 8.17601 45.36 10.96 49.104C13.84 52.752 17.248 55.44 21.184 57.168C25.216 58.896 30.544 60.624 37.168 62.352C42.544 63.792 46.816 65.136 49.984 66.384C53.152 67.632 55.792 69.456 57.904 71.856C60.016 74.256 61.072 77.376 61.072 81.216C61.072 86.112 59.248 90.144 55.6 93.312C52.048 96.384 47.152 97.92 40.912 97.92C34.384 97.92 29.392 96.336 25.936 93.168C22.576 89.904 20.656 85.92 20.176 81.216H6.208C6.21389 81.5517 6.2252 81.885 6.24193 82.216C6.49788 87.2805 8.02257 91.7951 10.816 95.76C13.792 99.888 17.872 103.152 23.056 105.552C28.336 107.856 34.288 109.008 40.912 109.008C47.824 109.008 53.824 107.664 58.912 104.976C64 102.288 67.84 98.784 70.432 94.464C73.024 90.144 74.32 85.536 74.32 80.64C74.32 74.304 72.88 69.312 70 65.664ZM131.18 95.912V109H118.372C110.941 109 105.181 107.291 101.278 103.696C97.3348 100.063 95.4836 94.208 95.4836 86.4V40.888H85.2596V28.088H95.4836V8.216H110.588V28.088H131.18V40.888H110.588V86.4C110.588 90.1316 111.386 92.5356 112.732 93.8902C114.08 95.1506 116.581 95.912 120.532 95.912H131.18ZM112.036 94.608C110.404 92.976 109.588 90.24 109.588 86.4V39.888H130.18V29.088H109.588V9.216H96.4836V29.088H86.2596V39.888H96.4836V86.4C96.4836 94.08 98.3076 99.6 101.956 102.96C105.604 106.32 111.076 108 118.372 108H130.18V96.912H120.532C116.5 96.912 113.668 96.144 112.036 94.608ZM159.827 105.13L159.821 105.127C153.705 101.674 148.872 96.7882 145.329 90.4903L145.325 90.4822L145.32 90.4741C141.871 84.0677 140.161 76.7002 140.161 68.4C140.161 60.1893 141.921 52.9118 145.473 46.5977L145.476 46.5933C149.115 40.1999 154.047 35.3118 160.265 31.9548C166.472 28.5076 173.407 26.792 181.049 26.792C188.69 26.792 195.626 28.5076 201.833 31.9548C208.048 35.3101 212.933 40.1487 216.478 46.4489C220.128 52.7654 221.937 60.0934 221.937 68.4C221.937 76.713 220.077 84.0908 216.329 90.5023C212.687 96.8018 207.707 101.685 201.401 105.133C195.099 108.579 188.116 110.296 180.473 110.296C172.923 110.296 166.034 108.578 159.827 105.13ZM215.465 90C219.113 83.76 220.937 76.56 220.937 68.4C220.937 60.24 219.161 53.088 215.609 46.944C212.153 40.8 207.401 36.096 201.353 32.832C195.305 29.472 188.537 27.792 181.049 27.792C173.561 27.792 166.793 29.472 160.745 32.832C154.697 36.096 149.897 40.848 146.345 47.088C142.889 53.232 141.161 60.336 141.161 68.4C141.161 76.56 142.841 83.76 146.201 90C149.657 96.144 154.361 100.896 160.313 104.256C166.361 107.616 173.081 109.296 180.473 109.296C187.961 109.296 194.777 107.616 200.921 104.256C207.065 100.896 211.913 96.144 215.465 90ZM202.79 84.0288L202.794 84.0218C205.277 79.7918 206.545 74.6 206.545 68.4C206.545 62.1941 205.323 56.9969 202.93 52.7641C200.518 48.4959 197.387 45.3784 193.545 43.3658L193.537 43.3615L193.528 43.3571C189.647 41.2317 185.445 40.168 180.905 40.168C176.265 40.168 172.015 41.2333 168.137 43.3571L168.13 43.3612C164.386 45.3698 161.35 48.4826 159.031 52.7495C156.729 56.9856 155.553 62.1882 155.553 68.4C155.553 74.7129 156.683 79.9659 158.892 84.2023C161.21 88.465 164.247 91.627 167.994 93.7312C171.774 95.7581 175.928 96.776 180.473 96.776C185.013 96.776 189.267 95.7122 193.249 93.5822C197.196 91.4711 200.375 88.3012 202.786 84.0359L202.79 84.0288ZM167.513 94.608C163.577 92.4 160.409 89.088 158.009 84.672C155.705 80.256 154.553 74.832 154.553 68.4C154.553 62.064 155.753 56.688 158.153 52.272C160.553 47.856 163.721 44.592 167.657 42.48C171.689 40.272 176.105 39.168 180.905 39.168C185.609 39.168 189.977 40.272 194.009 42.48C198.041 44.592 201.305 47.856 203.801 52.272C206.297 56.688 207.545 62.064 207.545 68.4C207.545 74.736 206.249 80.112 203.657 84.528C201.161 88.944 197.849 92.256 193.721 94.464C189.593 96.672 185.177 97.776 180.473 97.776C175.769 97.776 171.449 96.72 167.513 94.608ZM275.758 27.6592C276.089 27.6517 276.422 27.648 276.758 27.648V41.184H273.302C258.614 41.184 251.27 49.152 251.27 65.088V108H238.166V29.088H251.27V41.904C251.585 41.2864 251.919 40.6878 252.27 40.108C254.486 36.4517 257.416 33.5464 261.062 31.392C265.146 29.0325 270.044 27.7883 275.758 27.6592ZM252.27 38.2641C254.452 35.0856 257.214 32.5044 260.553 30.5311L260.562 30.5261C265.065 27.9241 270.479 26.648 276.758 26.648H277.758V42.184H273.302C266.134 42.184 260.936 44.1245 257.513 47.8377C254.077 51.5664 252.27 57.2548 252.27 65.088V109H237.166V28.088H252.27V38.2641ZM364.355 74.44H301.459C302.092 81.4937 304.617 86.9767 308.971 90.9853C313.671 95.1293 319.333 97.208 326.013 97.208C331.523 97.208 336.015 95.9488 339.554 93.4987C343.221 90.9312 345.778 87.5513 347.244 83.3355L347.478 82.664H363.617L363.264 83.9323C361.093 91.7293 356.741 98.1063 350.233 103.037L350.225 103.043C343.685 107.898 335.593 110.296 326.013 110.296C318.37 110.296 311.477 108.579 305.361 105.127L305.355 105.123C299.333 101.668 294.596 96.7792 291.151 90.4798L291.148 90.4741C287.699 84.0677 285.989 76.7002 285.989 68.4C285.989 60.1047 287.649 52.7864 291.002 46.4748C294.352 40.1682 299.046 35.3211 305.076 31.9597C311.195 28.5059 318.183 26.792 326.013 26.792C333.651 26.792 340.449 28.4581 346.378 31.818C352.297 35.1724 356.848 39.8187 360.01 45.7442C363.268 51.5712 364.885 58.1717 364.885 65.52C364.885 68.0542 364.739 70.7288 364.448 73.5429L364.355 74.44ZM340.125 94.32C336.381 96.912 331.677 98.208 326.013 98.208C319.101 98.208 313.197 96.048 308.301 91.728C303.709 87.5031 301.093 81.7404 300.455 74.44C300.426 74.1098 300.402 73.7765 300.381 73.44H363.453C363.741 70.656 363.885 68.016 363.885 65.52C363.885 58.32 362.301 51.888 359.133 46.224C356.061 40.464 351.645 35.952 345.885 32.688C340.125 29.424 333.501 27.792 326.013 27.792C318.333 27.792 311.517 29.472 305.565 32.832C299.709 36.096 295.149 40.8 291.885 46.944C288.621 53.088 286.989 60.24 286.989 68.4C286.989 76.56 288.669 83.76 292.029 90C295.389 96.144 299.997 100.896 305.853 104.256C311.805 107.616 318.525 109.296 326.013 109.296C335.421 109.296 343.293 106.944 349.629 102.24C355.684 97.6527 359.81 91.794 362.008 84.664C362.11 84.3334 362.207 84.0001 362.301 83.664H348.189C346.653 88.08 343.965 91.632 340.125 94.32ZM346.188 50.4959L346.181 50.4858C344.074 47.0047 341.198 44.403 337.536 42.6633L337.522 42.6568L337.509 42.6498C333.919 40.8089 329.902 39.88 325.437 39.88C319.048 39.88 313.627 41.9082 309.117 45.9567C304.952 49.7765 302.437 55.022 301.634 61.784H349.333C349.195 57.3775 348.134 53.6269 346.188 50.4959ZM350.334 61.784C350.344 62.1141 350.349 62.4474 350.349 62.784H300.525C300.555 62.4474 300.589 62.114 300.627 61.784C301.438 54.7728 304.044 49.2501 308.445 45.216C313.149 40.992 318.813 38.88 325.437 38.88C330.045 38.88 334.221 39.84 337.965 41.76C341.805 43.584 344.829 46.32 347.037 49.968C349.096 53.2805 350.195 57.2192 350.334 61.784ZM477.308 6.632V19.288H433.676V51.128H469.1V63.784H433.676V109H418.572V6.632H477.308ZM432.676 62.784H468.1V52.128H432.676V18.288H476.308V7.632H419.572V108H432.676V62.784ZM529.727 27.6592C530.057 27.6517 530.391 27.648 530.727 27.648V41.184H527.271C512.583 41.184 505.239 49.152 505.239 65.088V108H492.135V29.088H505.239V41.904C505.554 41.2864 505.888 40.6878 506.239 40.108C508.454 36.4517 511.385 33.5464 515.031 31.392C519.115 29.0325 524.013 27.7883 529.727 27.6592ZM506.239 38.2641C508.42 35.0856 511.183 32.5044 514.522 30.5311L514.531 30.5261C519.034 27.9241 524.448 26.648 530.727 26.648H531.727V42.184H527.271C520.103 42.184 514.905 44.1245 511.482 47.8377C508.046 51.5664 506.239 57.2548 506.239 65.088V109H491.135V28.088H506.239V38.2641ZM559.624 105.13L559.618 105.127C553.502 101.674 548.669 96.7882 545.126 90.4903L545.122 90.4822L545.117 90.4741C541.668 84.0677 539.958 76.7002 539.958 68.4C539.958 60.1893 541.718 52.9118 545.27 46.5977L545.273 46.5933C548.912 40.2003 553.843 35.3124 560.06 31.9554C566.268 28.5077 573.204 26.792 580.846 26.792C588.487 26.792 595.422 28.5074 601.629 31.9543C607.845 35.3098 612.73 40.1489 616.275 46.4501C619.925 52.7663 621.734 60.0938 621.734 68.4C621.734 76.713 619.874 84.0908 616.126 90.5024C612.484 96.8019 607.504 101.685 601.197 105.133C594.896 108.579 587.913 110.296 580.27 110.296C572.72 110.296 565.831 108.578 559.624 105.13ZM615.262 90C618.91 83.76 620.734 76.56 620.734 68.4C620.734 60.24 618.958 53.088 615.406 46.944C611.95 40.8 607.198 36.096 601.15 32.832C595.102 29.472 588.334 27.792 580.846 27.792C573.358 27.792 566.59 29.472 560.542 32.832C554.494 36.096 549.694 40.848 546.142 47.088C542.686 53.232 540.958 60.336 540.958 68.4C540.958 76.56 542.638 83.76 545.998 90C549.454 96.144 554.158 100.896 560.11 104.256C566.158 107.616 572.878 109.296 580.27 109.296C587.758 109.296 594.574 107.616 600.718 104.256C606.862 100.896 611.71 96.144 615.262 90ZM602.587 84.0288L602.591 84.0218C605.074 79.7918 606.342 74.6 606.342 68.4C606.342 62.1941 605.12 56.9969 602.727 52.7641C600.315 48.4959 597.184 45.3784 593.342 43.3658L593.333 43.3615L593.325 43.3571C589.444 41.2317 585.242 40.168 580.702 40.168C576.062 40.168 571.812 41.2333 567.934 43.3571L567.926 43.3612C564.183 45.3698 561.147 48.4826 558.828 52.7495C556.526 56.9856 555.35 62.1882 555.35 68.4C555.35 74.7122 556.48 79.9648 558.688 84.201C561.006 88.4642 564.043 91.6266 567.79 93.7311C571.571 95.758 575.725 96.776 580.27 96.776C584.81 96.776 589.064 95.7122 593.046 93.5822C596.993 91.4711 600.172 88.3012 602.583 84.0359L602.587 84.0288ZM567.31 94.608C563.374 92.4 560.206 89.088 557.806 84.672C555.502 80.256 554.35 74.832 554.35 68.4C554.35 62.064 555.55 56.688 557.95 52.272C560.35 47.856 563.518 44.592 567.454 42.48C571.486 40.272 575.902 39.168 580.702 39.168C585.406 39.168 589.774 40.272 593.806 42.48C597.838 44.592 601.102 47.856 603.598 52.272C606.094 56.688 607.342 62.064 607.342 68.4C607.342 74.736 606.046 80.112 603.454 84.528C600.958 88.944 597.646 92.256 593.518 94.464C589.39 96.672 584.974 97.776 580.27 97.776C575.566 97.776 571.246 96.72 567.31 94.608ZM709.667 109H694.707V63.36C694.707 55.646 692.78 49.9311 689.079 46.0501L689.071 46.0418C685.359 42.0574 680.268 40.024 673.675 40.024C666.992 40.024 661.751 42.1023 657.842 46.1908C654.044 50.2629 652.067 56.2672 652.067 64.368V109H636.963V28.088H652.067V37.2423C654.505 34.2598 657.53 31.8665 661.132 30.0656L661.139 30.0617C665.798 27.7822 670.894 26.648 676.411 26.648C686.229 26.648 694.271 29.6505 700.438 35.7165C706.639 41.7197 709.667 50.3655 709.667 61.488V109ZM699.739 36.432C693.787 30.576 686.011 27.648 676.411 27.648C671.035 27.648 666.091 28.752 661.579 30.96C657.707 32.8959 654.537 35.5327 652.067 38.8707C651.72 39.3399 651.386 39.823 651.067 40.32V29.088H637.963V108H651.067V64.368C651.067 56.112 653.083 49.824 657.115 45.504C661.243 41.184 666.763 39.024 673.675 39.024C680.491 39.024 685.867 41.136 689.803 45.36C693.739 49.488 695.707 55.488 695.707 63.36V108H708.667V61.488C708.667 50.544 705.691 42.192 699.739 36.432ZM767.648 95.912V109H754.84C747.41 109 741.65 107.291 737.747 103.696C733.804 100.063 731.952 94.208 731.952 86.4V40.888H721.728V28.088H731.952V8.216H747.056V28.088H767.648V40.888H747.056V86.4C747.056 90.1313 747.854 92.5352 749.201 93.89C750.549 95.1504 753.05 95.912 757 95.912H767.648ZM746.056 86.4C746.056 90.24 746.872 92.976 748.504 94.608C750.136 96.144 752.968 96.912 757 96.912H766.648V108H754.84C747.544 108 742.072 106.32 738.424 102.96C734.776 99.6 732.952 94.08 732.952 86.4V39.888H722.728V29.088H732.952V9.216H746.056V29.088H766.648V39.888H746.056V86.4Z" stroke="white" stroke-width="10" mask="url(#path-2-outside-2)"/>
</svg>
